<svg aria-hidden="true" style="position:absolute;width:0;height:0;overflow:hidden" xmlns="http://www.w3.org/2000/svg"><defs><symbol id="icon-clients_logo_4" viewBox="0 0 60 32"><path fill="#2196f3" style="fill:var(--color1, #2196f3)" d="M9.229 9.548h-.002c-1.684 0-3.049 1.331-3.049 2.971v.002c0 1.64 1.365 2.971 3.048 2.971h.002c1.684 0 3.049-1.331 3.049-2.971v-.002c0-1.64-1.365-2.97-3.049-2.97zm22.501-.949a8.508 8.508 0 0 0-2.59-6.075A8.954 8.954 0 0 0 22.909 0c-2.339.004-4.581.912-6.236 2.523s-2.585 3.797-2.59 6.076v12.566S31.728 19.25 31.73 8.601v-.002zM0 25.289a5.909 5.909 0 0 0 1.801 4.226l.002.001a6.223 6.223 0 0 0 4.336 1.758 6.215 6.215 0 0 0 4.337-1.759l-.002.002a5.906 5.906 0 0 0 1.804-4.224v-8.746S0 17.882 0 25.29zm6.14 1.566h-.002c-.331 0-.639-.098-.897-.267l.006.004a1.579 1.579 0 0 1-.589-.693l-.004-.01a1.506 1.506 0 0 1-.089-.915l-.002.01c.062-.304.215-.583.439-.802.22-.213.5-.365.814-.427l.01-.002c.312-.061.635-.03.929.089s.545.319.722.577a1.546 1.546 0 0 1 .146 1.481l.004-.01c-.08.191-.199.365-.348.511s-.327.262-.522.341a1.61 1.61 0 0 1-.616.12H6.14v-.006zm12.532-.971h-1.256v1.297h-.655v-3.173h2.067v.53h-1.412v.819h1.255v.528zm3.143-.218c0 .313-.055.586-.166.822a1.248 1.248 0 0 1-1.157.737h-.026.001c-.263 0-.498-.063-.704-.19a1.269 1.269 0 0 1-.476-.533l-.003-.008c-.109-.23-.173-.5-.173-.785v-.028.001-.158c0-.313.056-.588.168-.825a1.26 1.26 0 0 1 .477-.547c.207-.128.442-.192.707-.192s.499.064.704.192c.206.127.365.309.477.547.114.237.17.511.17.822v.141zm-.662-.144c0-.333-.06-.586-.179-.759a.585.585 0 0 0-.485-.26l-.027.001h.001l-.025-.001a.58.58 0 0 0-.482.256l-.001.002c-.119.17-.179.42-.181.749v.155c0 .324.06.576.179.755s.29.268.514.268l.026.001c.2 0 .375-.101.479-.255l.001-.002c.118-.173.177-.424.179-.755v-.155zm2.783.826v-.018a.334.334 0 0 0-.13-.264l-.001-.001c-.087-.067-.244-.137-.471-.21a3.363 3.363 0 0 1-.558-.227l.019.009c-.36-.195-.54-.457-.54-.787 0-.171.048-.324.144-.458.098-.135.236-.24.417-.316s.385-.113.61-.113c.227 0 .429.042.607.124s.314.197.412.347c.099.15.149.32.149.511h-.655a.422.422 0 0 0-.137-.338c-.092-.082-.22-.123-.386-.123-.159 0-.284.034-.372.103a.315.315 0 0 0-.134.259v.008c0 .103.052.189.156.259s.258.135.46.196c.372.112.643.251.813.417s.255.372.255.618c0 .275-.104.491-.312.647s-.487.234-.839.234c-.244 0-.466-.045-.667-.133a1.081 1.081 0 0 1-.458-.365l-.002-.003a.934.934 0 0 1-.157-.522v-.019.001h.656c0 .35.209.525.628.525a.61.61 0 0 0 .364-.094.31.31 0 0 0 .131-.254v-.013.001zm3.491-1.811h-.973v2.644H25.8v-2.644h-.959v-.53h2.586v.53zm2.285 1.268h-1.255v.85h1.474v.525h-2.128v-3.173h2.124v.53h-1.469v.756h1.255v.513zm1.777.214h-.521v1.162h-.655v-3.173h1.18c.375 0 .664.083.868.251s.305.403.305.708a.992.992 0 0 1-.141.543.955.955 0 0 1-.419.341l-.006.002.687 1.297v.03h-.702l-.595-1.162zm-.521-.53h.528c.164 0 .291-.042.381-.124a.45.45 0 0 0 .136-.323l-.001-.025v.001a.47.47 0 0 0-.129-.353c-.084-.086-.214-.129-.39-.129h-.525v.953zm3.963.573v1.119h-.654v-3.173h1.238c.238 0 .448.043.628.131.182.087.321.211.418.372s.147.342.147.548c0 .311-.107.557-.321.737-.212.179-.506.268-.883.268h-.573zm0-.529h.584c.173 0 .305-.041.394-.123.092-.081.138-.197.138-.348l.001-.023a.522.522 0 0 0-.139-.355.519.519 0 0 0-.38-.149h-.599v.997zm4.138.272h-1.255v.85h1.474v.525H37.16v-3.173h2.124v.53h-1.47v.756h1.256v.513zm3.036-1.268h-.973v2.644h-.654v-2.644h-.959v-.53h2.586v.53zm2.284 1.268h-1.256v.85h1.474v.525H42.48v-3.173h2.123v.53h-1.47v.756h1.256v.513zm1.777.214h-.521v1.162h-.655v-3.173h1.18c.375 0 .665.083.868.251s.305.403.305.708a.992.992 0 0 1-.141.543.955.955 0 0 1-.419.341l-.006.002.687 1.297v.03h-.703l-.595-1.162zm-.521-.53h.527c.164 0 .292-.042.382-.124a.45.45 0 0 0 .136-.323l-.001-.025v.001a.474.474 0 0 0-.129-.353c-.084-.086-.214-.129-.391-.129h-.525v.953zm3.844.859v-.018a.329.329 0 0 0-.131-.264l-.001-.001c-.088-.067-.244-.137-.471-.21a3.363 3.363 0 0 1-.558-.227l.019.009c-.36-.195-.54-.457-.54-.787 0-.171.048-.324.144-.458s.236-.24.417-.316c.182-.075.385-.113.61-.113.227 0 .429.042.606.124s.315.197.412.347c.099.15.149.32.149.511h-.655a.422.422 0 0 0-.137-.338c-.092-.082-.22-.123-.386-.123-.16 0-.284.034-.372.103a.315.315 0 0 0-.134.259v.008c0 .103.052.189.156.259s.258.135.46.196c.372.112.643.251.813.417s.255.372.255.618c0 .275-.104.491-.312.647s-.487.234-.839.234c-.244 0-.466-.045-.667-.133a1.087 1.087 0 0 1-.458-.365l-.002-.003a.934.934 0 0 1-.157-.522v-.019.001h.656c0 .35.208.525.627.525a.614.614 0 0 0 .365-.094.311.311 0 0 0 .13-.253v-.014.001z"/></symbol><symbol id="icon-clients_logo_6" viewBox="0 0 62 32"><path fill="#afb1b8" style="fill:var(--color2, #afb1b8)" d="M31.123 14.854a2.248 2.248 0 0 1-.396-1.437v.007-2.074c0-.637.131-1.12.394-1.45s.715-.495 1.356-.494c.602 0 1.03.141 1.282.422.275.359.41.798.378 1.241v.487h-1.076v-.494l.001-.064c0-.148-.012-.293-.034-.435l.002.016a.482.482 0 0 0-.153-.287.575.575 0 0 0-.345-.113l-.048.002h.002a.616.616 0 0 0-.412.119l.002-.001a.568.568 0 0 0-.178.313l-.001.004a2.594 2.594 0 0 0-.042.513v2.518c-.017.243.031.486.138.707a.526.526 0 0 0 .212.171l.003.001a.544.544 0 0 0 .28.04h-.003a.545.545 0 0 0 .382-.115l-.001.001a.522.522 0 0 0 .16-.303v-.003c.026-.167.037-.336.034-.504v-.511h1.076v.466a2.018 2.018 0 0 1-.376 1.311l.004-.006c-.247.308-.669.462-1.288.462s-1.088-.164-1.354-.506zm4.485.022c-.272-.323-.408-.794-.408-1.416v-2.183c0-.616.136-1.082.408-1.399s.726-.474 1.364-.473c.633 0 1.085.158 1.358.473.271.317.41.783.41 1.399v2.183c0 .616-.139 1.089-.415 1.414s-.726.487-1.353.487c-.626 0-1.09-.164-1.364-.485zm1.865-.524c.097-.202.142-.424.129-.646v-2.672l.002-.072a1.28 1.28 0 0 0-.133-.569l.003.007a.528.528 0 0 0-.216-.173l-.003-.001a.533.533 0 0 0-.287-.037h.003a.546.546 0 0 0-.289.039l.004-.001a.53.53 0 0 0-.22.172l-.001.001a1.263 1.263 0 0 0-.129.633v2.685a1.29 1.29 0 0 0 .129.646.676.676 0 0 0 .223.158l.004.002a.692.692 0 0 0 .558-.002l-.005.002a.672.672 0 0 0 .226-.16v-.013zm2.562-4.884h1.16l.872 4.028.892-4.028h1.128l.113 5.813h-.833l-.089-4.04-.861 4.04h-.669l-.892-4.054-.083 4.054h-.843l.104-5.812zm5.465 0h1.806c1.041 0 1.561.55 1.561 1.651 0 1.054-.548 1.58-1.643 1.579h-.616v2.583h-1.114l.007-5.812zm1.543 2.484a.791.791 0 0 0 .613-.183c.128-.197.184-.427.161-.657l.001-.064c0-.164-.02-.324-.057-.476l.003.014a.425.425 0 0 0-.083-.161l.001.001a.496.496 0 0 0-.138-.116l-.002-.001a1.057 1.057 0 0 0-.501-.092h.003-.433v1.736h.433zm3.431-2.484h1.197l1.229 5.813h-1.039l-.243-1.341H50.55l-.25 1.341h-1.054l1.229-5.812zm1.023 3.799-.417-2.44-.417 2.44h.834zm2.394-3.799h.781l1.494 3.316V9.468h.925v5.812h-.742l-1.503-3.462v3.462h-.957l.002-5.812zm5.367 3.596-1.242-3.588h1.046l.758 2.305.711-2.305h1.023l-1.226 3.588v2.216h-1.07v-2.216zm-26.413 4.758v.304h-.91v2.362h-.381v-2.362h-.914v-.304h2.205zm2.852 2.666h-.302a.124.124 0 0 1-.075-.026.134.134 0 0 1-.048-.06v-.001l-.263-.633h-1.262l-.263.633a.181.181 0 0 1-.04.072.124.124 0 0 1-.076.025h-.301l1.115-2.666h.387l1.128 2.655zm-1.847-.99h1.053l-.445-1.085a1.908 1.908 0 0 1-.08-.236l-.003-.014-.042.141-.04.111-.442 1.083zm3.769.728c.07.003.139.003.209 0 .061-.006.12-.017.179-.032.064-.015.117-.032.169-.052l-.009.003c.049-.019.098-.042.15-.065v-.6h-.451a.082.082 0 0 1-.055-.021.059.059 0 0 1-.022-.047v-.207h.865v1.022a1.598 1.598 0 0 1-.459.214l-.012.003a1.76 1.76 0 0 1-.27.055l-.009.001a2.896 2.896 0 0 1-.321.017h-.017c-.197 0-.386-.037-.56-.103l.011.004a1.355 1.355 0 0 1-.446-.279l.001.001a1.293 1.293 0 0 1-.285-.414l-.003-.008a1.415 1.415 0 0 1-.102-.534v-.02.001-.019c0-.194.037-.379.104-.549l-.004.01c.064-.158.162-.301.287-.422.127-.12.279-.214.446-.277a1.71 1.71 0 0 1 .598-.099c.104 0 .207.007.31.023a1.4 1.4 0 0 1 .487.173c.069.042.134.088.195.139l-.108.165a.103.103 0 0 1-.036.036.098.098 0 0 1-.051.014.134.134 0 0 1-.069-.021h.001a1.153 1.153 0 0 1-.114-.066l.005.003a.905.905 0 0 0-.143-.07l-.007-.002a1.21 1.21 0 0 0-.197-.058l-.008-.001a1.495 1.495 0 0 0-.268-.023h-.016.001-.013c-.15 0-.293.027-.425.077l.008-.003a.94.94 0 0 0-.328.211.924.924 0 0 0-.207.332 1.338 1.338 0 0 0 .003.898l-.003-.009c.049.125.125.24.223.335a.935.935 0 0 0 .326.211c.142.046.292.064.442.053zm3.553-.042h1.217v.304h-1.59v-2.666h.381l-.009 2.362zm2.484.303h-.381v-2.664h.381v2.666zm1.418-2.653a.21.21 0 0 1 .058.049l1.63 2.01-.002-.048.002-.05v.002-1.986h.333v2.676h-.192l-.013.001a.171.171 0 0 1-.071-.016h.001a.266.266 0 0 1-.06-.05l-1.628-2.007v2.072h-.319v-2.665h.198c.022 0 .043.004.063.013zm4.827-.012v.294H48.55v.88h1.095v.282H48.55v.91h1.351v.294h-1.743v-2.659h1.743zM9.95 1.359l16.929 4.55v15.946L9.952 17.308V1.359zM8.865 0v18.081l19.098 5.135V5.136L8.865-.001z"/><path fill="#afb1b8" style="fill:var(--color2, #afb1b8)" d="M19.1 31.61 0 26.471V8.391l19.1 5.137V31.61z"/><path fill="#afb1b8" style="fill:var(--color2, #afb1b8)" d="m9.181 1.155 16.707 4.493-7.105 6.728-16.71-4.495L9.18 1.154zM8.865 0 0 8.392l19.1 5.137 8.863-8.392L8.865 0zm11.31 30.593 7.787-7.374-7.787-2.096v9.47z"/></symbol></defs></svg>